<svg width="287" height="511" viewBox="0 0 287 511" fill="none" xmlns="http://www.w3.org/2000/svg">
<g opacity="0.57">
<path d="M236.41 209.901L248.009 221.501L248.07 221.561H286.077V221.147H248.242L236.643 209.547L236.581 209.486H211.655V209.901H236.41Z" fill="url(#paint0_linear_3_32342)"/>
<path d="M236.409 209.904L248.008 221.504L248.069 221.564H286.077V221.15H248.241L236.642 209.55L236.581 209.489H211.654V209.904H236.409Z" stroke="url(#paint1_linear_3_32342)" stroke-width="0.829559" stroke-miterlimit="10"/>
<path d="M227.092 247.792L204.823 225.521L204.528 225.815L226.678 247.964V282.92L247.545 303.788L247.606 303.848H267.057L281.211 318.002V456.16L284.841 459.789H286.076V459.374H285.013L281.626 455.988V317.831L267.289 303.494L267.228 303.434H247.777L227.092 282.748V247.792Z" fill="url(#paint2_linear_3_32342)"/>
<path d="M227.091 247.792L204.821 225.521L204.527 225.815L226.677 247.964V282.92L247.543 303.788L247.605 303.848H267.056L281.21 318.002V456.16L284.84 459.789H286.075V459.374H285.011L281.625 455.988V317.831L267.288 303.494L267.227 303.433H247.776L227.091 282.748V247.792Z" stroke="url(#paint3_linear_3_32342)" stroke-width="0.829559" stroke-miterlimit="10"/>
<path d="M237.416 301.905C237.22 301.905 237.04 301.963 236.887 302.061L216.884 282.06V259.384L196.813 239.313L196.52 239.607L216.469 259.556V282.231L236.593 302.356C236.494 302.508 236.436 302.688 236.436 302.884C236.436 303.425 236.875 303.864 237.416 303.864C237.957 303.864 238.395 303.425 238.395 302.884C238.395 302.343 237.957 301.905 237.416 301.905Z" fill="url(#paint4_linear_3_32342)"/>
<path d="M216.469 282.231L236.593 302.355C236.494 302.508 236.436 302.688 236.436 302.884C236.436 303.425 236.874 303.863 237.416 303.863C237.957 303.863 238.395 303.425 238.395 302.884C238.395 302.342 237.957 301.904 237.416 301.904C237.22 301.904 237.04 301.962 236.887 302.061L216.884 282.059V259.384L196.813 239.312L196.52 239.607L216.469 259.556V282.231Z" stroke="url(#paint5_linear_3_32342)" stroke-width="0.829559" stroke-miterlimit="10"/>
<path d="M286.075 270.906H250.498L239.392 259.799V241.52L220.264 222.392C220.363 222.24 220.421 222.06 220.421 221.864C220.421 221.323 219.983 220.884 219.442 220.884C218.9 220.884 218.462 221.323 218.462 221.864C218.462 222.405 218.9 222.844 219.442 222.844C219.637 222.844 219.818 222.785 219.971 222.687L238.977 241.692V259.971L250.266 271.26L250.326 271.32H286.075V270.906Z" fill="url(#paint6_linear_3_32342)"/>
<path d="M220.264 222.392C220.363 222.24 220.421 222.059 220.421 221.864C220.421 221.322 219.983 220.884 219.442 220.884C218.9 220.884 218.462 221.322 218.462 221.864C218.462 222.405 218.9 222.843 219.442 222.843C219.637 222.843 219.817 222.785 219.971 222.686L238.977 241.692V259.971L250.265 271.26L250.326 271.32H286.075V270.906H250.498L239.392 259.8V241.52L220.264 222.392Z" stroke="url(#paint7_linear_3_32342)" stroke-width="0.829559" stroke-miterlimit="10"/>
<path d="M286.077 233.086H273.463L262.817 243.732H250.683L224.805 217.852C224.904 217.7 224.962 217.519 224.962 217.324C224.962 216.783 224.524 216.344 223.983 216.344C223.442 216.344 223.003 216.783 223.003 217.324C223.003 217.865 223.442 218.304 223.983 218.304C224.179 218.304 224.359 218.246 224.512 218.147L250.451 244.086L250.511 244.147H262.989L273.635 233.501H286.077V233.086Z" fill="url(#paint8_linear_3_32342)"/>
<path d="M250.683 243.729L224.805 217.85C224.904 217.698 224.962 217.517 224.962 217.322C224.962 216.78 224.524 216.342 223.983 216.342C223.441 216.342 223.003 216.78 223.003 217.322C223.003 217.863 223.441 218.301 223.983 218.301C224.178 218.301 224.358 218.243 224.512 218.144L250.45 244.084L250.511 244.144H262.989L273.634 233.499H286.077V233.084H273.462L262.817 243.729H250.683Z" stroke="url(#paint9_linear_3_32342)" stroke-width="0.829559" stroke-miterlimit="10"/>
<path d="M286.077 301.917H284.442L273.511 290.986L273.451 290.926H251.053L232.647 272.52V251.442C233.089 251.346 233.419 250.954 233.419 250.485C233.419 249.943 232.981 249.505 232.44 249.505C231.899 249.505 231.46 249.943 231.46 250.485C231.46 250.954 231.792 251.346 232.233 251.442V272.692L250.82 291.28L250.881 291.34H273.279L284.209 302.271L284.271 302.332H286.077V301.917Z" fill="url(#paint10_linear_3_32342)"/>
<path d="M232.647 251.442C233.088 251.346 233.419 250.954 233.419 250.485C233.419 249.943 232.981 249.505 232.439 249.505C231.898 249.505 231.46 249.943 231.46 250.485C231.46 250.954 231.791 251.346 232.232 251.442V272.692L250.819 291.28L250.88 291.341H273.279L284.209 302.271L284.27 302.332H286.076V301.918H284.442L273.511 290.986L273.45 290.926H251.052L232.647 272.52V251.442Z" stroke="url(#paint11_linear_3_32342)" stroke-width="0.829559" stroke-miterlimit="10"/>
<path d="M228.966 369.94L204.272 345.246V264.117L190.495 250.339L190.201 250.633L203.857 264.288V345.418L228.552 370.112V510H228.966V369.94Z" fill="url(#paint12_linear_3_32342)"/>
<path d="M228.966 369.94L204.273 345.247V264.117L190.495 250.339L190.201 250.633L203.858 264.289V345.418L228.552 370.112V510H228.966V369.94Z" stroke="url(#paint13_linear_3_32342)" stroke-width="0.829559" stroke-miterlimit="10"/>
<path d="M185.142 324.796L159.275 298.929V264.162H158.86V299.101L184.727 324.967V377.276L175.909 386.093L175.849 386.154V510H176.264V386.326L185.081 377.509L185.142 377.448V324.796Z" fill="url(#paint14_linear_3_32342)"/>
<path d="M185.081 377.509L185.141 377.448V324.796L159.275 298.929V264.162H158.86V299.101L184.727 324.967V377.276L175.909 386.092L175.849 386.154V509.999H176.264V386.325L185.081 377.509Z" stroke="url(#paint15_linear_3_32342)" stroke-width="0.829559" stroke-miterlimit="10"/>
<path d="M178.173 372.766C177.977 372.766 177.797 372.824 177.645 372.923L162.826 358.105V314L152.18 303.354V265.823H151.766V303.526L162.412 314.172V358.277L177.35 373.217C177.252 373.37 177.194 373.55 177.194 373.746C177.194 374.287 177.632 374.725 178.173 374.725C178.714 374.725 179.153 374.287 179.153 373.746C179.153 373.204 178.714 372.766 178.173 372.766Z" fill="url(#paint16_linear_3_32342)"/>
<path d="M162.826 314.001L152.18 303.355V265.823H151.766V303.527L162.412 314.173V358.278L177.351 373.217C177.252 373.37 177.194 373.55 177.194 373.746C177.194 374.287 177.632 374.726 178.173 374.726C178.715 374.726 179.153 374.287 179.153 373.746C179.153 373.205 178.715 372.766 178.173 372.766C177.977 372.766 177.797 372.824 177.645 372.923L162.826 358.106V314.001Z" stroke="url(#paint17_linear_3_32342)" stroke-width="0.829559" stroke-miterlimit="10"/>
<path d="M169.736 373.722L155.91 359.897V317.111C156.352 317.015 156.682 316.624 156.682 316.154C156.682 315.613 156.244 315.174 155.703 315.174C155.162 315.174 154.724 315.613 154.724 316.154C154.724 316.624 155.054 317.015 155.496 317.111V360.068L169.322 373.894V509.995H169.736V373.722Z" fill="url(#paint18_linear_3_32342)"/>
<path d="M155.91 359.896V317.111C156.352 317.015 156.682 316.624 156.682 316.154C156.682 315.613 156.244 315.174 155.703 315.174C155.162 315.174 154.724 315.613 154.724 316.154C154.724 316.624 155.054 317.015 155.496 317.111V360.068L169.322 373.894V509.994H169.736V373.722L155.91 359.896Z" stroke="url(#paint19_linear_3_32342)" stroke-width="0.829559" stroke-miterlimit="10"/>
<path d="M217.305 488.301V373.107L194.372 350.174V310.102L169.739 285.469V260.288H169.324V285.64L193.957 310.273V350.346L216.889 373.279V488.301C216.449 488.396 216.117 488.787 216.117 489.257C216.117 489.798 216.556 490.238 217.097 490.238C217.638 490.238 218.077 489.798 218.077 489.257C218.077 488.787 217.746 488.396 217.305 488.301Z" fill="url(#paint20_linear_3_32342)"/>
<path d="M216.89 488.3C216.449 488.396 216.118 488.787 216.118 489.257C216.118 489.798 216.556 490.237 217.097 490.237C217.639 490.237 218.077 489.798 218.077 489.257C218.077 488.787 217.746 488.396 217.305 488.3V373.107L194.372 350.174V310.101L169.739 285.468V260.288H169.324V285.64L193.957 310.273V350.346L216.89 373.279V488.3Z" stroke="url(#paint21_linear_3_32342)" stroke-width="0.829559" stroke-miterlimit="10"/>
<path d="M202.943 367.533C202.402 367.533 201.964 367.971 201.964 368.513C201.964 368.982 202.295 369.374 202.736 369.469V381.331L191.182 392.884L191.122 392.945V509.999H191.537V393.117L203.09 381.564L203.151 381.503V369.469C203.592 369.374 203.923 368.982 203.923 368.513C203.923 367.971 203.484 367.533 202.943 367.533Z" fill="url(#paint22_linear_3_32342)"/>
<path d="M203.09 381.562L203.151 381.501V369.468C203.592 369.372 203.923 368.98 203.923 368.51C203.923 367.969 203.485 367.531 202.943 367.531C202.402 367.531 201.964 367.969 201.964 368.51C201.964 368.98 202.295 369.372 202.736 369.468V381.329L191.183 392.882L191.122 392.943V509.996H191.537V393.115L203.09 381.562Z" stroke="url(#paint23_linear_3_32342)" stroke-width="0.829559" stroke-miterlimit="10"/>
<path d="M286.079 493.993H257.589L243.367 479.772V364.252L210.666 331.551V290.302C211.145 290.239 211.517 289.832 211.517 289.335C211.517 288.794 211.078 288.355 210.538 288.355C209.996 288.355 209.558 288.794 209.558 289.335C209.558 289.776 209.85 290.144 210.251 290.267V331.723L242.952 364.424V479.943L257.356 494.348L257.417 494.408H286.079V493.993Z" fill="url(#paint24_linear_3_32342)"/>
<path d="M243.367 364.252L210.666 331.551V290.302C211.145 290.238 211.517 289.832 211.517 289.335C211.517 288.794 211.078 288.355 210.538 288.355C209.996 288.355 209.558 288.794 209.558 289.335C209.558 289.776 209.851 290.144 210.251 290.267V331.723L242.952 364.424V479.943L257.356 494.347L257.417 494.408H286.079V493.993H257.589L243.367 479.771V364.252Z" stroke="url(#paint25_linear_3_32342)" stroke-width="0.829559" stroke-miterlimit="10"/>
<path d="M286.078 481.628H264.009L254.41 472.03V349.173L218.771 313.533C218.854 313.389 218.905 313.226 218.905 313.049C218.905 312.507 218.466 312.069 217.925 312.069C217.383 312.069 216.945 312.507 216.945 313.049C216.945 313.59 217.383 314.028 217.925 314.028C218.138 314.028 218.334 313.959 218.494 313.843L253.996 349.345V472.202L263.777 481.982L263.837 482.043H286.078V481.628Z" fill="url(#paint26_linear_3_32342)"/>
<path d="M218.772 313.533C218.854 313.389 218.905 313.225 218.905 313.048C218.905 312.507 218.466 312.069 217.925 312.069C217.384 312.069 216.945 312.507 216.945 313.048C216.945 313.59 217.384 314.028 217.925 314.028C218.138 314.028 218.334 313.959 218.494 313.843L253.996 349.344V472.201L263.777 481.982L263.838 482.042H286.079V481.627H264.01L254.411 472.03V349.172L218.772 313.533Z" stroke="url(#paint27_linear_3_32342)" stroke-width="0.829559" stroke-miterlimit="10"/>
<path d="M273.297 466.734V331.552L260.795 319.051L260.734 318.99H238.472L218.747 299.266C218.846 299.113 218.905 298.932 218.905 298.736C218.905 298.195 218.466 297.757 217.925 297.757C217.383 297.757 216.945 298.195 216.945 298.736C216.945 299.278 217.383 299.716 217.925 299.716C218.12 299.716 218.301 299.658 218.453 299.559L238.239 319.344L238.3 319.405H260.562L272.882 331.724V466.734C272.441 466.83 272.109 467.221 272.109 467.692C272.109 468.232 272.548 468.671 273.089 468.671C273.631 468.671 274.069 468.232 274.069 467.692C274.069 467.221 273.738 466.83 273.297 466.734Z" fill="url(#paint28_linear_3_32342)"/>
<path d="M273.293 331.552L260.792 319.051L260.731 318.99H238.468L218.744 299.265C218.843 299.112 218.901 298.932 218.901 298.736C218.901 298.195 218.462 297.757 217.921 297.757C217.38 297.757 216.941 298.195 216.941 298.736C216.941 299.278 217.38 299.716 217.921 299.716C218.117 299.716 218.297 299.658 218.45 299.559L238.236 319.344L238.297 319.404H260.56L272.879 331.724V466.734C272.437 466.829 272.107 467.221 272.107 467.691C272.107 468.232 272.545 468.671 273.086 468.671C273.627 468.671 274.065 468.232 274.065 467.691C274.065 467.221 273.735 466.829 273.293 466.734V331.552Z" stroke="url(#paint29_linear_3_32342)" stroke-width="0.829559" stroke-miterlimit="10"/>
<path d="M286.077 256.546H254.601L244.599 246.543C244.698 246.391 244.757 246.21 244.757 246.015C244.757 245.474 244.318 245.035 243.777 245.035C243.235 245.035 242.797 245.474 242.797 246.015C242.797 246.556 243.235 246.995 243.777 246.995C243.972 246.995 244.153 246.936 244.306 246.837L254.369 256.9L254.429 256.961H286.077V256.546Z" fill="url(#paint30_linear_3_32342)"/>
<path d="M242.797 246.015C242.797 246.556 243.235 246.994 243.776 246.994C243.972 246.994 244.153 246.935 244.306 246.837L254.368 256.9L254.429 256.96H286.077V256.546H254.601L244.599 246.543C244.698 246.391 244.756 246.21 244.756 246.015C244.756 245.473 244.318 245.035 243.776 245.035C243.235 245.035 242.797 245.473 242.797 246.015Z" stroke="url(#paint31_linear_3_32342)" stroke-width="0.829559" stroke-miterlimit="10"/>
<path d="M286.075 280.649H250.497L237.915 268.066C238.014 267.914 238.072 267.733 238.072 267.538C238.072 266.997 237.634 266.558 237.093 266.558C236.552 266.558 236.113 266.997 236.113 267.538C236.113 268.079 236.552 268.518 237.093 268.518C237.288 268.518 237.469 268.459 237.621 268.36L250.265 281.004L250.325 281.064H286.075V280.649Z" fill="url(#paint32_linear_3_32342)"/>
<path d="M238.073 267.538C238.073 266.996 237.634 266.558 237.093 266.558C236.552 266.558 236.113 266.996 236.113 267.538C236.113 268.079 236.552 268.517 237.093 268.517C237.288 268.517 237.469 268.459 237.622 268.36L250.265 281.003L250.326 281.064H286.076V280.649H250.498L237.916 268.066C238.015 267.914 238.073 267.733 238.073 267.538Z" stroke="url(#paint33_linear_3_32342)" stroke-width="0.829559" stroke-miterlimit="10"/>
<path d="M198.634 292.53V285.381L187.85 274.598V266.301L183.675 262.125L183.381 262.42L187.435 266.473V274.769L198.219 285.553V292.53C197.778 292.625 197.447 293.017 197.447 293.487C197.447 294.028 197.885 294.466 198.427 294.466C198.968 294.466 199.407 294.028 199.407 293.487C199.407 293.017 199.076 292.625 198.634 292.53Z" fill="url(#paint34_linear_3_32342)"/>
<path d="M199.407 293.481C199.407 293.011 199.076 292.62 198.635 292.525V285.376L187.851 274.592V266.297L183.675 262.121L183.381 262.414L187.436 266.468V274.764L198.22 285.548V292.525C197.779 292.62 197.447 293.011 197.447 293.481C197.447 294.023 197.886 294.461 198.427 294.461C198.968 294.461 199.407 294.023 199.407 293.481Z" stroke="url(#paint35_linear_3_32342)" stroke-width="0.829559" stroke-miterlimit="10"/>
<path d="M199.741 335.959V305.284L178.91 284.453V277.661C179.351 277.565 179.683 277.174 179.683 276.704C179.683 276.163 179.244 275.724 178.703 275.724C178.161 275.724 177.723 276.163 177.723 276.704C177.723 277.174 178.054 277.565 178.495 277.661V284.625L199.326 305.456V335.959C198.885 336.055 198.553 336.446 198.553 336.916C198.553 337.457 198.992 337.896 199.533 337.896C200.075 337.896 200.513 337.457 200.513 336.916C200.513 336.446 200.182 336.055 199.741 335.959Z" fill="url(#paint36_linear_3_32342)"/>
<path d="M200.513 336.916C200.513 336.446 200.182 336.054 199.741 335.959V305.284L178.909 284.453V277.66C179.351 277.565 179.682 277.174 179.682 276.704C179.682 276.162 179.244 275.724 178.702 275.724C178.161 275.724 177.723 276.162 177.723 276.704C177.723 277.174 178.054 277.565 178.495 277.66V284.624L199.326 305.455V335.959C198.885 336.054 198.553 336.446 198.553 336.916C198.553 337.457 198.992 337.895 199.533 337.895C200.074 337.895 200.513 337.457 200.513 336.916Z" stroke="url(#paint37_linear_3_32342)" stroke-width="0.829559" stroke-miterlimit="10"/>
<path d="M194.279 360.345C193.738 360.345 193.3 360.783 193.3 361.325C193.3 361.795 193.631 362.186 194.072 362.281V374.881L180.859 388.092L180.799 388.153V496.232C180.358 496.327 180.026 496.718 180.026 497.188C180.026 497.729 180.465 498.168 181.006 498.168C181.548 498.168 181.986 497.729 181.986 497.188C181.986 496.718 181.655 496.327 181.214 496.232V388.325L194.426 375.113L194.487 375.052V362.281C194.928 362.186 195.259 361.795 195.259 361.325C195.259 360.783 194.82 360.345 194.279 360.345Z" fill="url(#paint38_linear_3_32342)"/>
<path d="M194.279 360.345C193.737 360.345 193.299 360.783 193.299 361.324C193.299 361.794 193.63 362.186 194.071 362.281V374.88L180.859 388.092L180.798 388.153V496.231C180.357 496.327 180.026 496.718 180.026 497.188C180.026 497.729 180.464 498.168 181.006 498.168C181.547 498.168 181.985 497.729 181.985 497.188C181.985 496.718 181.655 496.327 181.213 496.231V388.325L194.426 375.113L194.486 375.052V362.281C194.927 362.186 195.258 361.794 195.258 361.324C195.258 360.783 194.82 360.345 194.279 360.345Z" stroke="url(#paint39_linear_3_32342)" stroke-width="0.829559" stroke-miterlimit="10"/>
<path d="M68.9568 274.512L68.6023 274.279L68.542 274.34V282.75L47.8567 303.435H28.4063L14.0682 317.771L14.0079 317.832L14.0079 456.542L10.6217 459.929H9.55762V460.343H10.7931L14.4227 456.714L14.4227 318.004L28.5777 303.85H48.0287L68.896 282.983L68.9568 282.922V274.512Z" fill="url(#paint40_linear_3_32342)"/>
<path d="M68.6023 274.279L68.542 274.34V282.75L47.8567 303.435H28.4058L14.0688 317.771L14.0079 317.832L14.0079 456.542L10.6217 459.929H9.55762V460.343H10.7937L14.4227 456.714L14.4227 318.004L28.5777 303.85H48.0287L68.896 282.983L68.9568 282.922V274.512" stroke="url(#paint41_linear_3_32342)" stroke-width="0.829559" stroke-miterlimit="10"/>
<path d="M105.139 250.339L91.4216 264.055L91.3613 264.117V345.246L66.7278 369.879L66.667 369.94V510H67.0818V370.112L91.7152 345.479L91.7755 345.418V264.288L105.432 250.633L105.139 250.339Z" fill="url(#paint42_linear_3_32342)"/>
<path d="M91.7153 345.478L91.7755 345.417V264.287L105.432 250.632L105.138 250.338L91.4216 264.054L91.3608 264.116V345.245L66.7273 369.878L66.667 369.939V509.998H67.0818V370.111L91.7153 345.478Z" stroke="url(#paint43_linear_3_32342)" stroke-width="0.829559" stroke-miterlimit="10"/>
<path d="M136.771 266.923H136.356V298.925L110.55 324.73L110.489 324.791V377.443L119.367 386.321L119.367 509.995H119.782L119.782 386.149L110.904 377.271V324.963L136.71 299.157L136.771 299.096V266.923Z" fill="url(#paint44_linear_3_32342)"/>
<path d="M110.904 377.271V324.963L136.71 299.157L136.77 299.096V266.923H136.355V298.924L110.55 324.73L110.489 324.791V377.443L119.367 386.321L119.367 509.995H119.782L119.782 386.149L110.904 377.271Z" stroke="url(#paint45_linear_3_32342)" stroke-width="0.829559" stroke-miterlimit="10"/>
<path d="M139.929 315.174C139.387 315.174 138.949 315.613 138.949 316.154C138.949 316.624 139.28 317.015 139.721 317.111V359.897L125.956 373.662L125.896 373.722L125.896 509.995H126.31L126.31 373.894L140.075 360.129L140.136 360.068V317.111C140.577 317.015 140.908 316.624 140.908 316.154C140.908 315.613 140.47 315.174 139.929 315.174Z" fill="url(#paint46_linear_3_32342)"/>
<path d="M140.076 360.129L140.136 360.068V317.111C140.578 317.015 140.909 316.624 140.909 316.154C140.909 315.613 140.47 315.174 139.929 315.174C139.388 315.174 138.949 315.613 138.949 316.154C138.949 316.624 139.281 317.015 139.721 317.111V359.896L125.956 373.662L125.896 373.722L125.896 509.994H126.31L126.31 373.894L140.076 360.129Z" stroke="url(#paint47_linear_3_32342)" stroke-width="0.829559" stroke-miterlimit="10"/>
<path d="M126.309 265.266H125.895V285.469L101.322 310.041L101.262 310.102V350.175L78.389 373.046L78.3281 373.107L78.3281 488.301C77.8874 488.397 77.5566 488.788 77.5566 489.258C77.5566 489.799 77.9947 490.238 78.5361 490.238C79.077 490.238 79.5155 489.799 79.5155 489.258C79.5155 488.788 79.1843 488.397 78.7435 488.301L78.7435 373.279L101.616 350.407L101.676 350.346V310.274L126.248 285.702L126.309 285.641V265.266Z" fill="url(#paint48_linear_3_32342)"/>
<path d="M101.676 350.348V310.275L126.249 285.703L126.309 285.642V265.267H125.894V285.47L101.322 310.042L101.262 310.103V350.176L78.3895 373.048L78.3287 373.109L78.3287 488.302C77.8874 488.398 77.5566 488.79 77.5566 489.26C77.5566 489.801 77.9952 490.239 78.5361 490.239C79.0775 490.239 79.5161 489.801 79.5161 489.26C79.5161 488.79 79.1848 488.398 78.7435 488.302L78.7435 373.281L101.616 350.409L101.676 350.348Z" stroke="url(#paint49_linear_3_32342)" stroke-width="0.829559" stroke-miterlimit="10"/>
<path d="M170.452 24.0962L170.392 24.1337V39.6418L161.346 47.951L161.285 47.9885V107.447C160.844 107.506 160.513 107.748 160.513 108.038C160.513 108.371 160.951 108.642 161.493 108.642C162.034 108.642 162.472 108.371 162.472 108.038C162.472 107.748 162.141 107.506 161.7 107.447V48.0946L170.746 39.7854L170.807 39.7479V24.2398" stroke="url(#paint50_linear_3_32342)" stroke-width="1.10608" stroke-miterlimit="10"/>
<path d="M173.909 4.27844L173.848 4.33928L150.976 27.2113V109.193C151.417 109.289 151.748 109.681 151.748 110.151C151.748 110.691 151.31 111.13 150.768 111.13C150.228 111.13 149.789 110.691 149.789 110.151C149.789 109.681 150.12 109.289 150.561 109.193V27.0393L150.622 26.9785L173.494 4.10645" stroke="url(#paint51_linear_3_32342)" stroke-width="1.10608" stroke-miterlimit="10"/>
<path d="M104.511 392.945L92.8973 381.331V369.469C93.3387 369.374 93.6694 368.982 93.6694 368.513C93.6694 367.971 93.2314 367.533 92.6894 367.533C92.1485 367.533 91.71 367.971 91.71 368.513C91.71 368.982 92.0412 369.374 92.4826 369.469V381.503L104.096 393.117L104.096 509.999H104.511L104.511 392.945Z" fill="url(#paint52_linear_3_32342)"/>
<path d="M92.8978 381.329V369.468C93.3391 369.372 93.6698 368.98 93.6698 368.51C93.6698 367.969 93.2318 367.531 92.6904 367.531C92.1489 367.531 91.7109 367.969 91.7109 368.51C91.7109 368.98 92.0417 369.372 92.483 369.468V381.501L104.097 393.115L104.097 509.996H104.512L104.512 392.943L92.8978 381.329Z" stroke="url(#paint53_linear_3_32342)" stroke-width="0.829559" stroke-miterlimit="10"/>
<path d="M85.0995 288.355C84.5581 288.355 84.1195 288.794 84.1195 289.335C84.1195 289.832 84.4917 290.239 84.9706 290.302V331.551L52.3302 364.192L52.27 364.252L52.27 479.772L38.0485 493.993H9.55762V494.408H38.2205L52.6239 480.005L52.6847 479.943L52.6847 364.424L85.3251 331.785L85.386 331.723V290.267C85.7864 290.144 86.0795 289.776 86.0795 289.335C86.0795 288.794 85.6409 288.355 85.0995 288.355Z" fill="url(#paint54_linear_3_32342)"/>
<path d="M52.6842 479.943L52.6842 364.424L85.3251 331.785L85.3854 331.723V290.267C85.7858 290.145 86.0789 289.776 86.0789 289.335C86.0789 288.794 85.6404 288.355 85.0989 288.355C84.5581 288.355 84.1195 288.794 84.1195 289.335C84.1195 289.832 84.4911 290.239 84.9706 290.302V331.552L52.3297 364.192L52.2694 364.253L52.2694 479.771L38.048 493.993H9.55762V494.408H38.22L52.6239 480.004L52.6842 479.943Z" stroke="url(#paint55_linear_3_32342)" stroke-width="0.829559" stroke-miterlimit="10"/>
<path d="M77.7114 312.069C77.1705 312.069 76.732 312.507 76.732 313.049C76.732 313.226 76.7823 313.389 76.8647 313.533L41.2855 349.112L41.2252 349.173L41.2252 472.03L31.6272 481.628H9.55762V482.043H31.7987L41.5797 472.263L41.64 472.202L41.64 349.345L77.1418 313.843C77.3027 313.959 77.4985 314.028 77.7114 314.028C78.2523 314.028 78.6909 313.59 78.6909 313.049C78.6909 312.507 78.2523 312.069 77.7114 312.069Z" fill="url(#paint56_linear_3_32342)"/>
<path d="M41.64 472.202L41.64 349.345L77.1418 313.843C77.3022 313.959 77.4985 314.028 77.7114 314.028C78.2523 314.028 78.6909 313.59 78.6909 313.049C78.6909 312.507 78.2523 312.069 77.7114 312.069C77.17 312.069 76.7315 312.507 76.7315 313.049C76.7315 313.226 76.7823 313.389 76.8642 313.533L41.2855 349.112L41.2252 349.173L41.2252 472.03L31.6272 481.628H9.55762V482.043H31.7987L41.5797 472.263L41.64 472.202Z" stroke="url(#paint57_linear_3_32342)" stroke-width="0.829559" stroke-miterlimit="10"/>
<path d="M108.088 265.988L107.784 266.293V274.589L97.0599 285.312L96.999 285.373V292.521C96.5583 292.617 96.2275 293.008 96.2275 293.478C96.2275 294.019 96.6655 294.458 97.207 294.458C97.7478 294.458 98.1864 294.019 98.1864 293.478C98.1864 293.008 97.8557 292.617 97.4144 292.521V285.544L108.138 274.821L108.198 274.761V266.465L108.382 266.282L108.088 265.988Z" fill="url(#paint58_linear_3_32342)"/>
<path d="M107.784 266.293V274.589L97.0599 285.312L96.9996 285.373V292.521C96.5583 292.617 96.2275 293.008 96.2275 293.478C96.2275 294.019 96.6655 294.458 97.207 294.458C97.7484 294.458 98.1864 294.019 98.1864 293.478C98.1864 293.008 97.8557 292.617 97.4144 292.521V285.545L108.138 274.821L108.199 274.761V266.465L108.382 266.282L108.088 265.988L107.784 266.293Z" stroke="url(#paint59_linear_3_32342)" stroke-width="0.829559" stroke-miterlimit="10"/>
<path d="M62.8022 220.772C62.2607 220.772 61.8222 221.21 61.8222 221.751C61.8222 221.947 61.8808 222.127 61.9792 222.28L36.1014 248.158H23.9677L13.3837 237.574L13.3223 237.514H0.708008V237.928H13.1503L23.7349 248.513L23.7963 248.574H36.2734L62.2729 222.574C62.4261 222.673 62.6064 222.731 62.8022 222.731C63.343 222.731 63.7816 222.292 63.7816 221.751C63.7816 221.21 63.343 220.772 62.8022 220.772Z" fill="url(#paint60_linear_3_32342)"/>
<path d="M62.8016 222.731C63.343 222.731 63.7811 222.293 63.7811 221.752C63.7811 221.211 63.343 220.772 62.8016 220.772C62.2602 220.772 61.8222 221.211 61.8222 221.752C61.8222 221.947 61.8803 222.127 61.9792 222.281L36.1014 248.16H23.9672L13.3831 237.574L13.3217 237.514H0.708008V237.928H13.1503L23.7344 248.514L23.7957 248.574H36.2729L62.2729 222.574C62.4255 222.673 62.6058 222.731 62.8016 222.731Z" stroke="url(#paint61_linear_3_32342)" stroke-width="0.829559" stroke-miterlimit="10"/>
<path d="M61.8132 234.527C61.2723 234.527 60.8332 234.966 60.8332 235.507C60.8332 235.703 60.8924 235.883 60.9903 236.036L41.0344 256.546H9.55762V256.961H41.2058L61.284 236.33C61.4366 236.428 61.618 236.487 61.8132 236.487C62.3541 236.487 62.7926 236.048 62.7926 235.507C62.7926 234.966 62.3541 234.527 61.8132 234.527Z" fill="url(#paint62_linear_3_32342)"/>
<path d="M61.8127 236.487C62.3541 236.487 62.7921 236.048 62.7921 235.507C62.7921 234.966 62.3541 234.527 61.8127 234.527C61.2712 234.527 60.8332 234.966 60.8332 235.507C60.8332 235.702 60.8918 235.883 60.9903 236.036L41.0339 256.546H9.55762V256.961H41.2053L61.2839 236.33C61.436 236.428 61.6174 236.487 61.8127 236.487Z" stroke="url(#paint63_linear_3_32342)" stroke-width="0.829559" stroke-miterlimit="10"/>
<path d="M54.1145 273.194C53.5736 273.194 53.1351 273.632 53.1351 274.173C53.1351 274.369 53.1932 274.55 53.2927 274.703L40.71 287.285H5.13184V287.7H40.882L53.5858 274.996C53.739 275.095 53.9198 275.153 54.1145 275.153C54.6565 275.153 55.0945 274.715 55.0945 274.173C55.0945 273.632 54.6565 273.194 54.1145 273.194Z" fill="url(#paint64_linear_3_32342)"/>
<path d="M54.1145 275.153C54.656 275.153 55.094 274.715 55.094 274.174C55.094 273.632 54.656 273.194 54.1145 273.194C53.5731 273.194 53.1351 273.632 53.1351 274.174C53.1351 274.369 53.1932 274.549 53.2922 274.703L40.71 287.285H5.13184V287.7H40.8814L53.5858 274.996C53.7385 275.095 53.9188 275.153 54.1145 275.153Z" stroke="url(#paint65_linear_3_32342)" stroke-width="0.829559" stroke-miterlimit="10"/>
<path d="M77.708 297.757C77.1672 297.757 76.7286 298.195 76.7286 298.736C76.7286 298.932 76.7867 299.113 76.8851 299.266L57.1604 318.99H34.8984L22.3963 331.492L22.3361 331.552L22.3361 467.287C21.8947 467.383 21.5635 467.774 21.5635 468.245C21.5635 468.785 22.0026 469.224 22.5435 469.224C23.0843 469.224 23.5229 468.785 23.5229 468.245C23.5229 467.774 23.1922 467.383 22.7503 467.287L22.7503 331.724L35.0698 319.405H57.3324L77.1793 299.559C77.332 299.658 77.5123 299.716 77.708 299.716C78.2489 299.716 78.6875 299.278 78.6875 298.736C78.6875 298.195 78.2489 297.757 77.708 297.757Z" fill="url(#paint66_linear_3_32342)"/>
<path d="M23.5258 468.244C23.5258 467.774 23.1946 467.382 22.7538 467.287L22.7538 331.724L35.0727 319.404H57.3353L77.1823 299.559C77.3349 299.658 77.5152 299.716 77.711 299.716C78.2518 299.716 78.6904 299.278 78.6904 298.736C78.6904 298.195 78.2518 297.757 77.711 297.757C77.1695 297.757 76.731 298.195 76.731 298.736C76.731 298.932 76.7896 299.112 76.888 299.265L57.1633 318.99H34.9007L22.3993 331.491L22.339 331.552L22.339 467.287C21.8977 467.382 21.5664 467.774 21.5664 468.244C21.5664 468.785 22.005 469.223 22.5464 469.223C23.0873 469.223 23.5258 468.785 23.5258 468.244Z" stroke="url(#paint67_linear_3_32342)" stroke-width="0.829559" stroke-miterlimit="10"/>
<path d="M116.933 275.724C116.392 275.724 115.953 276.163 115.953 276.704C115.953 277.174 116.284 277.565 116.725 277.661V284.453L95.9549 305.223L95.8947 305.284V335.959C95.4528 336.055 95.1221 336.446 95.1221 336.916C95.1221 337.457 95.5606 337.896 96.102 337.896C96.6429 337.896 97.0815 337.457 97.0815 336.916C97.0815 336.446 96.7508 336.055 96.3089 335.959V305.456L117.079 284.686L117.14 284.625V277.661C117.582 277.565 117.912 277.174 117.912 276.704C117.912 276.163 117.474 275.724 116.933 275.724Z" fill="url(#paint68_linear_3_32342)"/>
<path d="M96.3089 335.959V305.456L117.079 284.686L117.14 284.625V277.661C117.581 277.565 117.912 277.174 117.912 276.704C117.912 276.163 117.474 275.724 116.932 275.724C116.391 275.724 115.953 276.163 115.953 276.704C115.953 277.174 116.284 277.565 116.725 277.661V284.453L95.9544 305.223L95.8941 305.284V335.959C95.4528 336.055 95.1221 336.446 95.1221 336.916C95.1221 337.457 95.5601 337.896 96.1015 337.896C96.6429 337.896 97.0809 337.457 97.0809 336.916C97.0809 336.446 96.7502 336.055 96.3089 335.959Z" stroke="url(#paint69_linear_3_32342)" stroke-width="0.829559" stroke-miterlimit="10"/>
<path d="M172.626 97.6044V57.9401L193.397 44.5738L193.457 44.5129V37.549C193.898 37.4534 194.23 37.0618 194.23 36.5917C194.23 36.0509 193.791 35.6123 193.25 35.6123C192.709 35.6123 192.27 36.0509 192.27 36.5917C192.27 37.0618 192.601 37.4534 193.042 37.549V44.3409L172.272 57.7073L172.211 65.1717V97.6044C171.77 97.7 171.439 98.0916 171.439 98.5611C171.439 99.1025 171.877 99.5411 172.419 99.5411C172.96 99.5411 173.398 99.1025 173.398 98.5611C173.398 98.0916 173.068 97.7 172.626 97.6044Z" stroke="url(#paint70_linear_3_32342)" stroke-width="0.829559" stroke-miterlimit="10"/>
<path d="M143.871 266.923H143.456V303.349L132.871 313.934L132.81 313.995V358.1L117.992 372.917C117.839 372.819 117.659 372.76 117.463 372.76C116.922 372.76 116.483 373.199 116.483 373.74C116.483 374.281 116.922 374.72 117.463 374.72C118.004 374.72 118.443 374.281 118.443 373.74C118.443 373.544 118.384 373.364 118.286 373.212L133.164 358.333L133.225 358.272V314.167L143.81 303.582L143.871 303.521V266.923Z" fill="url(#paint71_linear_3_32342)"/>
<path d="M116.483 373.74C116.483 374.282 116.922 374.72 117.463 374.72C118.004 374.72 118.443 374.282 118.443 373.74C118.443 373.544 118.385 373.364 118.286 373.212L133.164 358.333L133.224 358.272V314.167L143.81 303.582L143.87 303.521V266.923H143.456V303.349L132.871 313.934L132.81 313.995V358.1L117.992 372.918C117.839 372.819 117.659 372.761 117.463 372.761C116.922 372.761 116.483 373.199 116.483 373.74Z" stroke="url(#paint72_linear_3_32342)" stroke-width="0.829559" stroke-miterlimit="10"/>
<path d="M114.833 496.232L114.833 388.153L101.56 374.881V362.281C102.001 362.186 102.333 361.795 102.333 361.325C102.333 360.783 101.894 360.345 101.352 360.345C100.812 360.345 100.373 360.783 100.373 361.325C100.373 361.795 100.704 362.186 101.146 362.281V375.052L114.418 388.325L114.418 496.232C113.977 496.327 113.647 496.718 113.647 497.188C113.647 497.729 114.085 498.168 114.626 498.168C115.167 498.168 115.605 497.729 115.605 497.188C115.605 496.718 115.274 496.327 114.833 496.232Z" fill="url(#paint73_linear_3_32342)"/>
<path d="M101.148 362.276V375.046L114.421 388.319L114.421 496.226C113.98 496.321 113.649 496.712 113.649 497.182C113.649 497.723 114.087 498.162 114.628 498.162C115.17 498.162 115.608 497.723 115.608 497.182C115.608 496.712 115.277 496.321 114.836 496.226L114.836 388.147L101.563 374.874V362.276C102.004 362.18 102.335 361.788 102.335 361.319C102.335 360.777 101.897 360.339 101.355 360.339C100.814 360.339 100.376 360.777 100.376 361.319C100.376 361.788 100.707 362.18 101.148 362.276V362.276Z" stroke="url(#paint74_linear_3_32342)" stroke-width="0.829559" stroke-miterlimit="10"/>
<path d="M123.27 2.63206V35.7986L136.543 49.0716V100.247C136.102 100.342 135.771 100.733 135.771 101.203C135.771 101.744 136.209 102.183 136.75 102.183C137.292 102.183 137.73 101.744 137.73 101.203C137.73 100.733 137.399 100.342 136.958 100.247V48.8996L123.685 35.6266V2.63206C124.126 2.53638 124.457 2.14483 124.457 1.6753C124.457 1.13387 124.019 0.695312 123.477 0.695312C122.936 0.695312 122.498 1.13387 122.498 1.6753C122.498 2.14483 122.829 2.53638 123.27 2.63206Z" stroke="url(#paint75_linear_3_32342)" stroke-width="1.10608" stroke-miterlimit="10"/>
<path d="M158.805 398.105L148.021 387.321V266.43H147.606V387.493L158.391 398.276V509.997H158.805V398.105Z" fill="url(#paint76_linear_3_32342)"/>
<path d="M148.021 387.323V266.431H147.606V387.495L158.39 398.279V509.999H158.805V398.107L148.021 387.323Z" stroke="url(#paint77_linear_3_32342)" stroke-width="0.829559" stroke-miterlimit="10"/>
<path d="M112.628 46.8726L123.411 58.3966V105.173H122.997V58.5686L112.213 47.0446" stroke="url(#paint78_linear_3_32342)" stroke-width="1.10608" stroke-miterlimit="10"/>
<path d="M89.9212 222.262C77.5542 200.815 80.2198 172.996 98.4331 155.126C120.317 133.654 155.799 133.654 177.684 155.126C199.568 176.599 199.568 211.413 177.684 232.884C158.03 252.168 127.41 254.134 105.52 238.781L43.2928 299.836L30.1963 286.986L79.0463 239.056C56.1643 210.277 58.2133 168.607 85.1927 142.136C114.39 113.489 161.727 113.489 190.924 142.136C220.121 170.783 220.121 217.228 190.924 245.875C170.393 266.019 140.894 271.998 115.039 263.813" stroke="url(#paint79_linear_3_32342)" stroke-width="2.21216" stroke-miterlimit="10"/>
<path d="M110.281 256.252C112.91 256.252 115.041 258.343 115.041 260.923C115.041 263.502 112.91 265.593 110.281 265.593C107.652 265.593 105.521 263.502 105.521 260.923C105.521 258.343 107.652 256.252 110.281 256.252Z" stroke="url(#paint80_linear_3_32342)" stroke-width="2.21216" stroke-miterlimit="10"/>
<path d="M92.4485 220.416C95.0771 220.416 97.2085 222.506 97.2085 225.085C97.2085 227.665 95.0771 229.756 92.4485 229.756C89.8193 229.756 87.6885 227.665 87.6885 225.085C87.6885 222.506 89.8193 220.416 92.4485 220.416Z" stroke="url(#paint81_linear_3_32342)" stroke-width="2.21216" stroke-miterlimit="10"/>
<path d="M105.847 249.005C105.236 249.005 104.741 249.5 104.741 250.111C104.741 250.723 105.236 251.217 105.847 251.217C106.458 251.217 106.953 250.723 106.953 250.111C106.953 249.5 106.458 249.005 105.847 249.005Z" fill="url(#paint82_linear_3_32342)"/>
<path d="M105.847 251.218C105.236 251.218 104.741 250.723 104.741 250.111C104.741 249.501 105.236 249.005 105.847 249.005C106.458 249.005 106.953 249.501 106.953 250.111C106.953 250.723 106.458 251.218 105.847 251.218Z" stroke="url(#paint83_linear_3_32342)" stroke-width="0.829559" stroke-miterlimit="10"/>
<path d="M122.94 105.188C122.33 105.188 121.834 105.684 121.834 106.294C121.834 106.905 122.33 107.4 122.94 107.4C123.551 107.4 124.046 106.905 124.046 106.294C124.046 105.684 123.551 105.188 122.94 105.188Z" fill="url(#paint84_linear_3_32342)"/>
<path d="M122.94 107.4C122.33 107.4 121.834 106.905 121.834 106.294C121.834 105.684 122.33 105.188 122.94 105.188C123.551 105.188 124.046 105.684 124.046 106.294C124.046 106.905 123.551 107.4 122.94 107.4Z" stroke="url(#paint85_linear_3_32342)" stroke-width="0.829559" stroke-miterlimit="10"/>
<path d="M159.319 159.534L159.136 159.533C158.527 159.527 158.028 160.016 158.022 160.625L157.619 202.876C157.613 203.485 158.103 203.984 158.711 203.989L159.145 203.998C159.762 204.004 160.263 203.503 160.259 202.887L160.411 160.631C160.408 160.028 159.921 159.54 159.319 159.534Z" fill="url(#paint86_linear_3_32342)"/>
<path d="M159.073 207.087L158.89 207.085C158.281 207.079 157.782 207.568 157.776 208.177L157.373 233.675C157.368 234.284 157.856 234.783 158.466 234.789L158.899 234.797C159.516 234.803 160.017 234.303 160.013 233.686L160.165 208.182C160.161 207.58 159.675 207.092 159.073 207.087Z" fill="url(#paint87_linear_3_32342)"/>
<path d="M146.251 159.662L146.068 159.661C145.459 159.655 144.961 160.144 144.955 160.753L144.552 190.671C144.546 191.281 145.035 191.779 145.644 191.785L146.078 191.793C146.694 191.799 147.196 191.298 147.191 190.682L147.344 160.758C147.34 160.156 146.853 159.668 146.251 159.662Z" fill="url(#paint88_linear_3_32342)"/>
<path d="M146.251 194.962L146.068 194.961C145.459 194.954 144.961 195.444 144.955 196.053L144.552 234.309C144.546 234.918 145.035 235.416 145.644 235.422L146.078 235.43C146.694 235.436 147.196 234.936 147.191 234.32L147.344 196.058C147.34 195.456 146.853 194.968 146.251 194.962Z" fill="url(#paint89_linear_3_32342)"/>
<path d="M123.868 159.534L123.685 159.533C123.076 159.527 122.578 160.016 122.572 160.625L122.169 176.935C122.163 177.544 122.652 178.042 123.261 178.048L123.695 178.057C124.311 178.063 124.813 177.562 124.808 176.946L124.961 160.631C124.957 160.028 124.47 159.54 123.868 159.534Z" fill="url(#paint90_linear_3_32342)"/>
<path d="M123.62 181.575L123.438 181.573C122.828 181.567 122.33 182.056 122.324 182.666L121.921 219.301C121.915 219.91 122.404 220.409 123.014 220.415L123.447 220.423C124.063 220.429 124.564 219.928 124.561 219.312L124.713 182.671C124.709 182.069 124.223 181.581 123.62 181.575Z" fill="url(#paint91_linear_3_32342)"/>
<path d="M112.806 160.639L112.623 160.638C112.014 160.632 111.515 161.121 111.509 161.73L111.107 192.972C111.1 193.581 111.59 194.079 112.199 194.086L112.632 194.094C113.249 194.099 113.75 193.599 113.746 192.983L113.898 161.736C113.894 161.133 113.408 160.645 112.806 160.639Z" fill="url(#paint92_linear_3_32342)"/>
<path d="M135.264 159.534L135.082 159.533C134.472 159.527 133.975 160.016 133.969 160.625L133.565 208.178C133.56 208.787 134.049 209.286 134.658 209.291L135.091 209.3C135.707 209.306 136.209 208.805 136.205 208.189L136.357 160.631C136.354 160.028 135.867 159.54 135.264 159.534Z" fill="url(#paint93_linear_3_32342)"/>
</g>
<defs>
<linearGradient id="paint0_linear_3_32342" x1="248.866" y1="209.486" x2="248.866" y2="221.561" gradientUnits="userSpaceOnUse">
<stop stop-color="#46A273"/>
<stop offset="0.00558659" stop-color="#46A273"/>
<stop offset="1" stop-color="#133641"/>
</linearGradient>
<linearGradient id="paint1_linear_3_32342" x1="887.6" y1="209.075" x2="887.6" y2="221.979" gradientUnits="userSpaceOnUse">
<stop stop-color="#46A273"/>
<stop offset="0.00558659" stop-color="#46A273"/>
<stop offset="1" stop-color="#133641"/>
</linearGradient>
<linearGradient id="paint2_linear_3_32342" x1="245.302" y1="225.522" x2="245.302" y2="459.789" gradientUnits="userSpaceOnUse">
<stop stop-color="#46A273"/>
<stop offset="0.00558659" stop-color="#46A273"/>
<stop offset="1" stop-color="#133641"/>
</linearGradient>
<linearGradient id="paint3_linear_3_32342" x1="872.614" y1="224.935" x2="872.614" y2="460.204" gradientUnits="userSpaceOnUse">
<stop stop-color="#46A273"/>
<stop offset="0.00558659" stop-color="#46A273"/>
<stop offset="1" stop-color="#133641"/>
</linearGradient>
<linearGradient id="paint4_linear_3_32342" x1="217.457" y1="239.313" x2="217.457" y2="303.864" gradientUnits="userSpaceOnUse">
<stop stop-color="#46A273"/>
<stop offset="0.00558659" stop-color="#46A273"/>
<stop offset="1" stop-color="#133641"/>
</linearGradient>
<linearGradient id="paint5_linear_3_32342" x1="879.215" y1="238.726" x2="879.215" y2="304.278" gradientUnits="userSpaceOnUse">
<stop stop-color="#46A273"/>
<stop offset="0.00558659" stop-color="#46A273"/>
<stop offset="1" stop-color="#133641"/>
</linearGradient>
<linearGradient id="paint6_linear_3_32342" x1="252.269" y1="220.884" x2="252.269" y2="271.321" gradientUnits="userSpaceOnUse">
<stop stop-color="#46A273"/>
<stop offset="0.00558659" stop-color="#46A273"/>
<stop offset="1" stop-color="#133641"/>
</linearGradient>
<linearGradient id="paint7_linear_3_32342" x1="851.907" y1="220.469" x2="851.907" y2="271.735" gradientUnits="userSpaceOnUse">
<stop stop-color="#46A273"/>
<stop offset="0.00558659" stop-color="#46A273"/>
<stop offset="1" stop-color="#133641"/>
</linearGradient>
<linearGradient id="paint8_linear_3_32342" x1="254.54" y1="216.344" x2="254.54" y2="244.147" gradientUnits="userSpaceOnUse">
<stop stop-color="#46A273"/>
<stop offset="0.00558659" stop-color="#46A273"/>
<stop offset="1" stop-color="#133641"/>
</linearGradient>
<linearGradient id="paint9_linear_3_32342" x1="910.474" y1="215.927" x2="910.474" y2="244.559" gradientUnits="userSpaceOnUse">
<stop stop-color="#46A273"/>
<stop offset="0.00558659" stop-color="#46A273"/>
<stop offset="1" stop-color="#133641"/>
</linearGradient>
<linearGradient id="paint10_linear_3_32342" x1="258.769" y1="249.505" x2="258.769" y2="302.332" gradientUnits="userSpaceOnUse">
<stop stop-color="#46A273"/>
<stop offset="0.00558659" stop-color="#46A273"/>
<stop offset="1" stop-color="#133641"/>
</linearGradient>
<linearGradient id="paint11_linear_3_32342" x1="870.172" y1="249.09" x2="870.172" y2="302.747" gradientUnits="userSpaceOnUse">
<stop stop-color="#46A273"/>
<stop offset="0.00558659" stop-color="#46A273"/>
<stop offset="1" stop-color="#133641"/>
</linearGradient>
<linearGradient id="paint12_linear_3_32342" x1="209.584" y1="250.339" x2="209.584" y2="510" gradientUnits="userSpaceOnUse">
<stop stop-color="#46A273"/>
<stop offset="0.00558659" stop-color="#46A273"/>
<stop offset="1" stop-color="#133641"/>
</linearGradient>
<linearGradient id="paint13_linear_3_32342" x1="912.082" y1="249.753" x2="912.082" y2="510.415" gradientUnits="userSpaceOnUse">
<stop stop-color="#46A273"/>
<stop offset="0.00558659" stop-color="#46A273"/>
<stop offset="1" stop-color="#133641"/>
</linearGradient>
<linearGradient id="paint14_linear_3_32342" x1="172.001" y1="264.162" x2="172.001" y2="510" gradientUnits="userSpaceOnUse">
<stop stop-color="#46A273"/>
<stop offset="0.00558659" stop-color="#46A273"/>
<stop offset="1" stop-color="#133641"/>
</linearGradient>
<linearGradient id="paint15_linear_3_32342" x1="861.809" y1="263.747" x2="861.809" y2="510.414" gradientUnits="userSpaceOnUse">
<stop stop-color="#46A273"/>
<stop offset="0.00558659" stop-color="#46A273"/>
<stop offset="1" stop-color="#133641"/>
</linearGradient>
<linearGradient id="paint16_linear_3_32342" x1="165.459" y1="265.822" x2="165.459" y2="374.725" gradientUnits="userSpaceOnUse">
<stop stop-color="#46A273"/>
<stop offset="0.00558659" stop-color="#46A273"/>
<stop offset="1" stop-color="#133641"/>
</linearGradient>
<linearGradient id="paint17_linear_3_32342" x1="823.841" y1="265.408" x2="823.841" y2="375.14" gradientUnits="userSpaceOnUse">
<stop stop-color="#46A273"/>
<stop offset="0.00558659" stop-color="#46A273"/>
<stop offset="1" stop-color="#133641"/>
</linearGradient>
<linearGradient id="paint18_linear_3_32342" x1="162.23" y1="315.175" x2="162.23" y2="509.995" gradientUnits="userSpaceOnUse">
<stop stop-color="#46A273"/>
<stop offset="0.00558659" stop-color="#46A273"/>
<stop offset="1" stop-color="#133641"/>
</linearGradient>
<linearGradient id="paint19_linear_3_32342" x1="813.238" y1="314.759" x2="813.238" y2="510.409" gradientUnits="userSpaceOnUse">
<stop stop-color="#46A273"/>
<stop offset="0.00558659" stop-color="#46A273"/>
<stop offset="1" stop-color="#133641"/>
</linearGradient>
<linearGradient id="paint20_linear_3_32342" x1="193.701" y1="260.288" x2="193.701" y2="490.237" gradientUnits="userSpaceOnUse">
<stop stop-color="#46A273"/>
<stop offset="0.00558659" stop-color="#46A273"/>
<stop offset="1" stop-color="#133641"/>
</linearGradient>
<linearGradient id="paint21_linear_3_32342" x1="903.727" y1="259.873" x2="903.727" y2="490.652" gradientUnits="userSpaceOnUse">
<stop stop-color="#46A273"/>
<stop offset="0.00558659" stop-color="#46A273"/>
<stop offset="1" stop-color="#133641"/>
</linearGradient>
<linearGradient id="paint22_linear_3_32342" x1="197.523" y1="367.533" x2="197.523" y2="509.999" gradientUnits="userSpaceOnUse">
<stop stop-color="#46A273"/>
<stop offset="0.00558659" stop-color="#46A273"/>
<stop offset="1" stop-color="#133641"/>
</linearGradient>
<linearGradient id="paint23_linear_3_32342" x1="872.306" y1="367.116" x2="872.306" y2="510.412" gradientUnits="userSpaceOnUse">
<stop stop-color="#46A273"/>
<stop offset="0.00558659" stop-color="#46A273"/>
<stop offset="1" stop-color="#133641"/>
</linearGradient>
<linearGradient id="paint24_linear_3_32342" x1="247.818" y1="288.356" x2="247.818" y2="494.408" gradientUnits="userSpaceOnUse">
<stop stop-color="#46A273"/>
<stop offset="0.00558659" stop-color="#46A273"/>
<stop offset="1" stop-color="#133641"/>
</linearGradient>
<linearGradient id="paint25_linear_3_32342" x1="902.563" y1="287.94" x2="902.563" y2="494.822" gradientUnits="userSpaceOnUse">
<stop stop-color="#46A273"/>
<stop offset="0.00558659" stop-color="#46A273"/>
<stop offset="1" stop-color="#133641"/>
</linearGradient>
<linearGradient id="paint26_linear_3_32342" x1="251.512" y1="312.069" x2="251.512" y2="482.043" gradientUnits="userSpaceOnUse">
<stop stop-color="#46A273"/>
<stop offset="0.00558659" stop-color="#46A273"/>
<stop offset="1" stop-color="#133641"/>
</linearGradient>
<linearGradient id="paint27_linear_3_32342" x1="849.68" y1="311.654" x2="849.68" y2="482.457" gradientUnits="userSpaceOnUse">
<stop stop-color="#46A273"/>
<stop offset="0.00558659" stop-color="#46A273"/>
<stop offset="1" stop-color="#133641"/>
</linearGradient>
<linearGradient id="paint28_linear_3_32342" x1="245.507" y1="297.757" x2="245.507" y2="468.671" gradientUnits="userSpaceOnUse">
<stop stop-color="#46A273"/>
<stop offset="0.00558659" stop-color="#46A273"/>
<stop offset="1" stop-color="#133641"/>
</linearGradient>
<linearGradient id="paint29_linear_3_32342" x1="964.73" y1="297.342" x2="964.73" y2="469.085" gradientUnits="userSpaceOnUse">
<stop stop-color="#46A273"/>
<stop offset="0.00558659" stop-color="#46A273"/>
<stop offset="1" stop-color="#133641"/>
</linearGradient>
<linearGradient id="paint30_linear_3_32342" x1="264.437" y1="245.035" x2="264.437" y2="256.961" gradientUnits="userSpaceOnUse">
<stop stop-color="#46A273"/>
<stop offset="0.00558659" stop-color="#46A273"/>
<stop offset="1" stop-color="#133641"/>
</linearGradient>
<linearGradient id="paint31_linear_3_32342" x1="884.804" y1="244.62" x2="884.804" y2="257.375" gradientUnits="userSpaceOnUse">
<stop stop-color="#46A273"/>
<stop offset="0.00558659" stop-color="#46A273"/>
<stop offset="1" stop-color="#133641"/>
</linearGradient>
<linearGradient id="paint32_linear_3_32342" x1="261.094" y1="266.558" x2="261.094" y2="281.064" gradientUnits="userSpaceOnUse">
<stop stop-color="#46A273"/>
<stop offset="0.00558659" stop-color="#46A273"/>
<stop offset="1" stop-color="#133641"/>
</linearGradient>
<linearGradient id="paint33_linear_3_32342" x1="878.698" y1="266.143" x2="878.698" y2="281.479" gradientUnits="userSpaceOnUse">
<stop stop-color="#46A273"/>
<stop offset="0.00558659" stop-color="#46A273"/>
<stop offset="1" stop-color="#133641"/>
</linearGradient>
<linearGradient id="paint34_linear_3_32342" x1="191.394" y1="262.126" x2="191.394" y2="294.466" gradientUnits="userSpaceOnUse">
<stop stop-color="#46A273"/>
<stop offset="0.00558659" stop-color="#46A273"/>
<stop offset="1" stop-color="#133641"/>
</linearGradient>
<linearGradient id="paint35_linear_3_32342" x1="871.153" y1="261.534" x2="871.153" y2="294.876" gradientUnits="userSpaceOnUse">
<stop stop-color="#46A273"/>
<stop offset="0.00558659" stop-color="#46A273"/>
<stop offset="1" stop-color="#133641"/>
</linearGradient>
<linearGradient id="paint36_linear_3_32342" x1="189.118" y1="275.724" x2="189.118" y2="337.896" gradientUnits="userSpaceOnUse">
<stop stop-color="#46A273"/>
<stop offset="0.00558659" stop-color="#46A273"/>
<stop offset="1" stop-color="#133641"/>
</linearGradient>
<linearGradient id="paint37_linear_3_32342" x1="875.555" y1="275.309" x2="875.555" y2="338.31" gradientUnits="userSpaceOnUse">
<stop stop-color="#46A273"/>
<stop offset="0.00558659" stop-color="#46A273"/>
<stop offset="1" stop-color="#133641"/>
</linearGradient>
<linearGradient id="paint38_linear_3_32342" x1="187.643" y1="360.345" x2="187.643" y2="498.168" gradientUnits="userSpaceOnUse">
<stop stop-color="#46A273"/>
<stop offset="0.00558659" stop-color="#46A273"/>
<stop offset="1" stop-color="#133641"/>
</linearGradient>
<linearGradient id="paint39_linear_3_32342" x1="864.563" y1="359.93" x2="864.563" y2="498.582" gradientUnits="userSpaceOnUse">
<stop stop-color="#46A273"/>
<stop offset="0.00558659" stop-color="#46A273"/>
<stop offset="1" stop-color="#133641"/>
</linearGradient>
<linearGradient id="paint40_linear_3_32342" x1="39.2572" y1="274.279" x2="39.2572" y2="460.344" gradientUnits="userSpaceOnUse">
<stop stop-color="#46A273"/>
<stop offset="0.00558659" stop-color="#46A273"/>
<stop offset="1" stop-color="#133641"/>
</linearGradient>
<linearGradient id="paint41_linear_3_32342" x1="761.594" y1="273.987" x2="761.594" y2="460.758" gradientUnits="userSpaceOnUse">
<stop stop-color="#46A273"/>
<stop offset="0.00558659" stop-color="#46A273"/>
<stop offset="1" stop-color="#133641"/>
</linearGradient>
<linearGradient id="paint42_linear_3_32342" x1="86.0496" y1="250.339" x2="86.0496" y2="510" gradientUnits="userSpaceOnUse">
<stop stop-color="#46A273"/>
<stop offset="0.00558659" stop-color="#46A273"/>
<stop offset="1" stop-color="#133641"/>
</linearGradient>
<linearGradient id="paint43_linear_3_32342" x1="760.942" y1="249.752" x2="760.942" y2="510.413" gradientUnits="userSpaceOnUse">
<stop stop-color="#46A273"/>
<stop offset="0.00558659" stop-color="#46A273"/>
<stop offset="1" stop-color="#133641"/>
</linearGradient>
<linearGradient id="paint44_linear_3_32342" x1="123.63" y1="266.923" x2="123.63" y2="509.995" gradientUnits="userSpaceOnUse">
<stop stop-color="#46A273"/>
<stop offset="0.00558659" stop-color="#46A273"/>
<stop offset="1" stop-color="#133641"/>
</linearGradient>
<linearGradient id="paint45_linear_3_32342" x1="761.826" y1="266.508" x2="761.826" y2="510.41" gradientUnits="userSpaceOnUse">
<stop stop-color="#46A273"/>
<stop offset="0.00558659" stop-color="#46A273"/>
<stop offset="1" stop-color="#133641"/>
</linearGradient>
<linearGradient id="paint46_linear_3_32342" x1="133.402" y1="315.175" x2="133.402" y2="509.995" gradientUnits="userSpaceOnUse">
<stop stop-color="#46A273"/>
<stop offset="0.00558659" stop-color="#46A273"/>
<stop offset="1" stop-color="#133641"/>
</linearGradient>
<linearGradient id="paint47_linear_3_32342" x1="810.397" y1="314.759" x2="810.397" y2="510.409" gradientUnits="userSpaceOnUse">
<stop stop-color="#46A273"/>
<stop offset="0.00558659" stop-color="#46A273"/>
<stop offset="1" stop-color="#133641"/>
</linearGradient>
<linearGradient id="paint48_linear_3_32342" x1="101.933" y1="265.266" x2="101.933" y2="490.238" gradientUnits="userSpaceOnUse">
<stop stop-color="#46A273"/>
<stop offset="0.00558659" stop-color="#46A273"/>
<stop offset="1" stop-color="#133641"/>
</linearGradient>
<linearGradient id="paint49_linear_3_32342" x1="765.067" y1="264.852" x2="765.067" y2="490.654" gradientUnits="userSpaceOnUse">
<stop stop-color="#46A273"/>
<stop offset="0.00558659" stop-color="#46A273"/>
<stop offset="1" stop-color="#133641"/>
</linearGradient>
<linearGradient id="paint50_linear_3_32342" x1="256.248" y1="23.926" x2="256.248" y2="108.812" gradientUnits="userSpaceOnUse">
<stop offset="0.119792" stop-color="#133641"/>
<stop offset="0.921875" stop-color="#46A273"/>
<stop offset="1" stop-color="#46A273"/>
</linearGradient>
<linearGradient id="paint51_linear_3_32342" x1="374.1" y1="3.89104" x2="374.1" y2="111.346" gradientUnits="userSpaceOnUse">
<stop offset="0.119792" stop-color="#133641"/>
<stop offset="0.921875" stop-color="#46A273"/>
<stop offset="1" stop-color="#46A273"/>
</linearGradient>
<linearGradient id="paint52_linear_3_32342" x1="98.1105" y1="367.533" x2="98.1105" y2="509.999" gradientUnits="userSpaceOnUse">
<stop stop-color="#46A273"/>
<stop offset="0.00558659" stop-color="#46A273"/>
<stop offset="1" stop-color="#133641"/>
</linearGradient>
<linearGradient id="paint53_linear_3_32342" x1="751.332" y1="367.116" x2="751.332" y2="510.412" gradientUnits="userSpaceOnUse">
<stop stop-color="#46A273"/>
<stop offset="0.00558659" stop-color="#46A273"/>
<stop offset="1" stop-color="#133641"/>
</linearGradient>
<linearGradient id="paint54_linear_3_32342" x1="47.8186" y1="288.356" x2="47.8186" y2="494.408" gradientUnits="userSpaceOnUse">
<stop stop-color="#46A273"/>
<stop offset="0.00558659" stop-color="#46A273"/>
<stop offset="1" stop-color="#133641"/>
</linearGradient>
<linearGradient id="paint55_linear_3_32342" x1="721.198" y1="287.941" x2="721.198" y2="494.823" gradientUnits="userSpaceOnUse">
<stop stop-color="#46A273"/>
<stop offset="0.00558659" stop-color="#46A273"/>
<stop offset="1" stop-color="#133641"/>
</linearGradient>
<linearGradient id="paint56_linear_3_32342" x1="44.1244" y1="312.069" x2="44.1244" y2="482.043" gradientUnits="userSpaceOnUse">
<stop stop-color="#46A273"/>
<stop offset="0.00558659" stop-color="#46A273"/>
<stop offset="1" stop-color="#133641"/>
</linearGradient>
<linearGradient id="paint57_linear_3_32342" x1="702.803" y1="311.654" x2="702.803" y2="482.458" gradientUnits="userSpaceOnUse">
<stop stop-color="#46A273"/>
<stop offset="0.00558659" stop-color="#46A273"/>
<stop offset="1" stop-color="#133641"/>
</linearGradient>
<linearGradient id="paint58_linear_3_32342" x1="102.304" y1="265.989" x2="102.304" y2="294.458" gradientUnits="userSpaceOnUse">
<stop stop-color="#46A273"/>
<stop offset="0.00558659" stop-color="#46A273"/>
<stop offset="1" stop-color="#133641"/>
</linearGradient>
<linearGradient id="paint59_linear_3_32342" x1="776.824" y1="265.402" x2="776.824" y2="294.873" gradientUnits="userSpaceOnUse">
<stop stop-color="#46A273"/>
<stop offset="0.00558659" stop-color="#46A273"/>
<stop offset="1" stop-color="#133641"/>
</linearGradient>
<linearGradient id="paint60_linear_3_32342" x1="32.245" y1="220.772" x2="32.245" y2="248.574" gradientUnits="userSpaceOnUse">
<stop stop-color="#46A273"/>
<stop offset="0.00558659" stop-color="#46A273"/>
<stop offset="1" stop-color="#133641"/>
</linearGradient>
<linearGradient id="paint61_linear_3_32342" x1="757.006" y1="220.357" x2="757.006" y2="248.989" gradientUnits="userSpaceOnUse">
<stop stop-color="#46A273"/>
<stop offset="0.00558659" stop-color="#46A273"/>
<stop offset="1" stop-color="#133641"/>
</linearGradient>
<linearGradient id="paint62_linear_3_32342" x1="36.1753" y1="234.528" x2="36.1753" y2="256.961" gradientUnits="userSpaceOnUse">
<stop stop-color="#46A273"/>
<stop offset="0.00558659" stop-color="#46A273"/>
<stop offset="1" stop-color="#133641"/>
</linearGradient>
<linearGradient id="paint63_linear_3_32342" x1="751.098" y1="234.113" x2="751.098" y2="257.375" gradientUnits="userSpaceOnUse">
<stop stop-color="#46A273"/>
<stop offset="0.00558659" stop-color="#46A273"/>
<stop offset="1" stop-color="#133641"/>
</linearGradient>
<linearGradient id="paint64_linear_3_32342" x1="30.1133" y1="273.194" x2="30.1133" y2="287.7" gradientUnits="userSpaceOnUse">
<stop stop-color="#46A273"/>
<stop offset="0.00558659" stop-color="#46A273"/>
<stop offset="1" stop-color="#133641"/>
</linearGradient>
<linearGradient id="paint65_linear_3_32342" x1="741.764" y1="272.779" x2="741.764" y2="288.115" gradientUnits="userSpaceOnUse">
<stop stop-color="#46A273"/>
<stop offset="0.00558659" stop-color="#46A273"/>
<stop offset="1" stop-color="#133641"/>
</linearGradient>
<linearGradient id="paint66_linear_3_32342" x1="50.1256" y1="297.757" x2="50.1256" y2="469.224" gradientUnits="userSpaceOnUse">
<stop stop-color="#46A273"/>
<stop offset="0.00558659" stop-color="#46A273"/>
<stop offset="1" stop-color="#133641"/>
</linearGradient>
<linearGradient id="paint67_linear_3_32342" x1="660.57" y1="297.342" x2="660.57" y2="469.638" gradientUnits="userSpaceOnUse">
<stop stop-color="#46A273"/>
<stop offset="0.00558659" stop-color="#46A273"/>
<stop offset="1" stop-color="#133641"/>
</linearGradient>
<linearGradient id="paint68_linear_3_32342" x1="106.517" y1="275.724" x2="106.517" y2="337.896" gradientUnits="userSpaceOnUse">
<stop stop-color="#46A273"/>
<stop offset="0.00558659" stop-color="#46A273"/>
<stop offset="1" stop-color="#133641"/>
</linearGradient>
<linearGradient id="paint69_linear_3_32342" x1="749.748" y1="275.309" x2="749.748" y2="338.31" gradientUnits="userSpaceOnUse">
<stop stop-color="#46A273"/>
<stop offset="0.00558659" stop-color="#46A273"/>
<stop offset="1" stop-color="#133641"/>
</linearGradient>
<linearGradient id="paint70_linear_3_32342" x1="383.386" y1="35.4836" x2="383.386" y2="99.6698" gradientUnits="userSpaceOnUse">
<stop offset="0.119792" stop-color="#133641"/>
<stop offset="0.921875" stop-color="#46A273"/>
<stop offset="1" stop-color="#46A273"/>
</linearGradient>
<linearGradient id="paint71_linear_3_32342" x1="130.177" y1="266.923" x2="130.177" y2="374.72" gradientUnits="userSpaceOnUse">
<stop stop-color="#46A273"/>
<stop offset="0.00558659" stop-color="#46A273"/>
<stop offset="1" stop-color="#133641"/>
</linearGradient>
<linearGradient id="paint72_linear_3_32342" x1="766.437" y1="266.508" x2="766.437" y2="375.135" gradientUnits="userSpaceOnUse">
<stop stop-color="#46A273"/>
<stop offset="0.00558659" stop-color="#46A273"/>
<stop offset="1" stop-color="#133641"/>
</linearGradient>
<linearGradient id="paint73_linear_3_32342" x1="107.989" y1="360.345" x2="107.989" y2="498.168" gradientUnits="userSpaceOnUse">
<stop stop-color="#46A273"/>
<stop offset="0.00558659" stop-color="#46A273"/>
<stop offset="1" stop-color="#133641"/>
</linearGradient>
<linearGradient id="paint74_linear_3_32342" x1="757.951" y1="359.924" x2="757.951" y2="498.577" gradientUnits="userSpaceOnUse">
<stop stop-color="#46A273"/>
<stop offset="0.00558659" stop-color="#46A273"/>
<stop offset="1" stop-color="#133641"/>
</linearGradient>
<linearGradient id="paint75_linear_3_32342" x1="264.152" y1="0.491047" x2="264.152" y2="102.387" gradientUnits="userSpaceOnUse">
<stop offset="0.119792" stop-color="#133641"/>
<stop offset="0.921875" stop-color="#46A273"/>
<stop offset="1" stop-color="#46A273"/>
</linearGradient>
<linearGradient id="paint76_linear_3_32342" x1="153.206" y1="266.43" x2="153.206" y2="509.997" gradientUnits="userSpaceOnUse">
<stop stop-color="#46A273"/>
<stop offset="0.00558659" stop-color="#46A273"/>
<stop offset="1" stop-color="#133641"/>
</linearGradient>
<linearGradient id="paint77_linear_3_32342" x1="806.484" y1="266.017" x2="806.484" y2="510.414" gradientUnits="userSpaceOnUse">
<stop stop-color="#46A273"/>
<stop offset="0.00558659" stop-color="#46A273"/>
<stop offset="1" stop-color="#133641"/>
</linearGradient>
<linearGradient id="paint78_linear_3_32342" x1="216.358" y1="46.7552" x2="216.358" y2="105.29" gradientUnits="userSpaceOnUse">
<stop offset="0.119792" stop-color="#133641"/>
<stop offset="0.921875" stop-color="#46A273"/>
<stop offset="1" stop-color="#46A273"/>
</linearGradient>
<linearGradient id="paint79_linear_3_32342" x1="1728.59" y1="120.29" x2="1728.59" y2="300.197" gradientUnits="userSpaceOnUse">
<stop stop-color="#46A273"/>
<stop offset="0.00558659" stop-color="#46A273"/>
<stop offset="1" stop-color="#133641"/>
</linearGradient>
<linearGradient id="paint80_linear_3_32342" x1="194.056" y1="256.234" x2="194.056" y2="265.612" gradientUnits="userSpaceOnUse">
<stop stop-color="#46A273"/>
<stop offset="0.00558659" stop-color="#46A273"/>
<stop offset="1" stop-color="#133641"/>
</linearGradient>
<linearGradient id="paint81_linear_3_32342" x1="176.224" y1="220.397" x2="176.224" y2="229.775" gradientUnits="userSpaceOnUse">
<stop stop-color="#46A273"/>
<stop offset="0.00558659" stop-color="#46A273"/>
<stop offset="1" stop-color="#133641"/>
</linearGradient>
<linearGradient id="paint82_linear_3_32342" x1="105.847" y1="249.006" x2="105.847" y2="251.218" gradientUnits="userSpaceOnUse">
<stop stop-color="#46A273"/>
<stop offset="0.00558659" stop-color="#46A273"/>
<stop offset="1" stop-color="#133641"/>
</linearGradient>
<linearGradient id="paint83_linear_3_32342" x1="769.494" y1="248.591" x2="769.494" y2="251.632" gradientUnits="userSpaceOnUse">
<stop stop-color="#46A273"/>
<stop offset="0.00558659" stop-color="#46A273"/>
<stop offset="1" stop-color="#133641"/>
</linearGradient>
<linearGradient id="paint84_linear_3_32342" x1="122.94" y1="105.188" x2="122.94" y2="107.4" gradientUnits="userSpaceOnUse">
<stop stop-color="#46A273"/>
<stop offset="0.00558659" stop-color="#46A273"/>
<stop offset="1" stop-color="#133641"/>
</linearGradient>
<linearGradient id="paint85_linear_3_32342" x1="786.587" y1="104.773" x2="786.587" y2="107.815" gradientUnits="userSpaceOnUse">
<stop stop-color="#46A273"/>
<stop offset="0.00558659" stop-color="#46A273"/>
<stop offset="1" stop-color="#133641"/>
</linearGradient>
<linearGradient id="paint86_linear_3_32342" x1="159.015" y1="159.533" x2="159.015" y2="203.998" gradientUnits="userSpaceOnUse">
<stop stop-color="#46A273"/>
<stop offset="0.00558659" stop-color="#46A273"/>
<stop offset="1" stop-color="#133641"/>
</linearGradient>
<linearGradient id="paint87_linear_3_32342" x1="158.769" y1="207.085" x2="158.769" y2="234.797" gradientUnits="userSpaceOnUse">
<stop stop-color="#46A273"/>
<stop offset="0.00558659" stop-color="#46A273"/>
<stop offset="1" stop-color="#133641"/>
</linearGradient>
<linearGradient id="paint88_linear_3_32342" x1="145.948" y1="159.661" x2="145.948" y2="191.793" gradientUnits="userSpaceOnUse">
<stop stop-color="#46A273"/>
<stop offset="0.00558659" stop-color="#46A273"/>
<stop offset="1" stop-color="#133641"/>
</linearGradient>
<linearGradient id="paint89_linear_3_32342" x1="145.948" y1="194.961" x2="145.948" y2="235.43" gradientUnits="userSpaceOnUse">
<stop stop-color="#46A273"/>
<stop offset="0.00558659" stop-color="#46A273"/>
<stop offset="1" stop-color="#133641"/>
</linearGradient>
<linearGradient id="paint90_linear_3_32342" x1="123.565" y1="159.533" x2="123.565" y2="178.057" gradientUnits="userSpaceOnUse">
<stop stop-color="#46A273"/>
<stop offset="0.00558659" stop-color="#46A273"/>
<stop offset="1" stop-color="#133641"/>
</linearGradient>
<linearGradient id="paint91_linear_3_32342" x1="123.317" y1="181.573" x2="123.317" y2="220.423" gradientUnits="userSpaceOnUse">
<stop stop-color="#46A273"/>
<stop offset="0.00558659" stop-color="#46A273"/>
<stop offset="1" stop-color="#133641"/>
</linearGradient>
<linearGradient id="paint92_linear_3_32342" x1="112.502" y1="160.638" x2="112.502" y2="194.094" gradientUnits="userSpaceOnUse">
<stop stop-color="#46A273"/>
<stop offset="0.00558659" stop-color="#46A273"/>
<stop offset="1" stop-color="#133641"/>
</linearGradient>
<linearGradient id="paint93_linear_3_32342" x1="134.961" y1="159.533" x2="134.961" y2="209.299" gradientUnits="userSpaceOnUse">
<stop stop-color="#46A273"/>
<stop offset="0.00558659" stop-color="#46A273"/>
<stop offset="1" stop-color="#133641"/>
</linearGradient>
</defs>
</svg>
